<svg width="226" height="235" viewBox="0 0 226 235" fill="none" xmlns="http://www.w3.org/2000/svg">
<path fill-rule="evenodd" clip-rule="evenodd" d="M190.021 173.903C200.965 175.88 212.293 176.546 224.002 175.902C224.002 177.901 224.002 179.9 224.002 181.899C206.012 181.899 188.022 181.899 170.032 181.899C166.518 181.146 163.186 179.813 160.038 177.901C156.488 181.974 153.155 186.305 150.043 190.894C136.181 198.804 125.187 195.805 117.061 181.899C114.005 171.54 117.003 163.545 126.056 157.912C120.639 156.389 115.642 157.721 111.065 161.91C99.5431 179.907 103.207 194.232 122.059 204.886C156.699 205.885 191.346 206.219 226.001 205.886C226.001 211.882 226.001 217.879 226.001 223.876C191.346 224.209 156.699 223.875 122.059 222.876C92.9767 212.354 81.9828 192.032 89.0769 161.91C93.4604 148.883 102.455 141.221 116.062 138.923C130.182 135.434 142.509 138.433 153.041 147.918C156.845 151.798 158.51 156.462 158.039 161.91C162.036 161.91 166.034 161.91 170.032 161.91C169.388 166.352 170.722 170.017 174.03 172.904C179.319 173.898 184.65 174.231 190.021 173.903Z" fill="#DB9D30"/>
<path fill-rule="evenodd" clip-rule="evenodd" d="M76.0846 181.904C77.4179 185.902 78.7492 189.9 80.0824 193.898C80.3703 201.916 81.0359 209.911 82.0813 217.884C83.6145 232.013 77.6178 237.01 64.0913 232.876C57.307 224.671 56.3076 215.676 61.0929 205.891C65.6124 197.503 70.6097 189.508 76.0846 181.904Z" fill="#DB9D30"/>
<path fill-rule="evenodd" clip-rule="evenodd" d="M26.1119 223.876C5.92907 224.416 -1.06705 215.088 5.12352 195.891C28.1188 181.731 50.7722 167.072 73.0858 151.916C86.3405 134.073 97.0006 114.75 105.068 93.9478C107.551 96.6902 110.549 98.6891 114.063 99.9444C118.519 97.7916 123.184 96.4584 128.055 95.9467C128.367 101.076 127.7 106.073 126.056 110.938C128.909 114.337 130.574 118.001 131.054 121.932C83.9478 137.721 51.9656 169.037 35.1069 215.88C32.3144 219.019 29.3161 221.684 26.1119 223.876Z" fill="#DB9D30"/>
<path fill-rule="evenodd" clip-rule="evenodd" d="M80.0821 193.898C78.7489 189.9 77.4176 185.902 76.0843 181.905C76.2043 180.819 76.8699 180.153 78.0832 179.906C80.0302 184.389 80.6978 189.053 80.0821 193.898Z" fill="#DB9D30"/>
<path fill-rule="evenodd" clip-rule="evenodd" d="M38.1055 155.919C43.4366 157.252 48.7656 158.584 54.0967 159.917C46.1751 166.554 37.5139 172.217 28.1111 176.907C18.8122 179.292 10.4829 177.626 3.12494 171.91C0.360466 159.67 5.3577 153.673 18.1166 153.92C24.7469 155.026 31.4093 155.692 38.1055 155.919Z" fill="#DB9D30"/>
<path fill-rule="evenodd" clip-rule="evenodd" d="M54.0968 159.917C48.7658 158.584 43.4367 157.251 38.1057 155.919C44.2463 155.284 50.2429 155.951 56.0957 157.918C55.8478 159.13 55.1822 159.797 54.0968 159.917Z" fill="#DB9D30"/>
<path fill-rule="evenodd" clip-rule="evenodd" d="M62.0916 137.924C32.428 142.842 12.1053 131.515 1.12535 103.942C0.125908 69.3016 -0.207909 34.6548 0.125908 0C6.12258 0 12.1193 0 18.1159 0C17.7821 33.9872 18.1159 67.9683 19.1154 101.943C29.5236 120.972 43.8497 125.303 62.0916 114.936C67.2827 110.305 68.9478 104.642 67.0888 97.9457C61.298 107.251 52.9706 110.249 42.1026 106.941C29.0759 98.4554 26.7452 87.4615 35.1065 73.959C39.3781 72.0021 43.0441 69.3376 46.1004 65.9634C45.101 63.9645 44.1015 61.9657 43.1021 59.9668C42.1026 39.9898 41.7708 20.0009 42.1026 0C44.7672 0 47.4337 0 50.0982 0C49.7664 16.6708 50.0982 33.3275 51.0976 49.9723C53.5803 52.7148 56.5786 54.7137 60.0927 55.969C61.9956 59.0573 62.6612 62.3894 62.0916 65.9634C78.2746 70.273 86.9378 80.9351 88.0771 97.9457C87.2916 116.665 78.6304 129.991 62.0916 137.924Z" fill="#DB9D30"/>
</svg>
