<svg width="345" height="987" viewBox="0 0 345 987" fill="none" xmlns="http://www.w3.org/2000/svg">
  <path d="M172.5 224.614C118.516 224.614 74.6545 179.186 74.6545 123.407C74.6545 67.6278 118.559 22.2002 172.5 22.2002C226.441 22.2002 270.345 67.6278 270.345 123.407C270.345 179.186 226.441 224.614 172.5 224.614ZM172.5 208.744C217.985 208.744 255.013 170.46 255.013 123.364C255.013 76.2684 217.985 37.9846 172.5 37.9846C127.015 37.9846 89.987 76.2684 89.987 123.364C89.987 170.46 127.015 208.744 172.5 208.744ZM172.5 194.5C134.575 194.5 103.739 162.589 103.739 123.364C103.739 84.1391 134.575 52.2286 172.5 52.2286C210.425 52.2286 241.303 84.1391 241.303 123.364C241.303 162.589 210.425 194.5 172.5 194.5ZM172.5 178.673C201.969 178.673 225.971 153.863 225.971 123.407C225.971 92.9509 202.012 68.1415 172.5 68.1415C142.988 68.1415 119.072 92.9509 119.072 123.407C119.072 153.863 143.031 178.673 172.5 178.673ZM172.5 164.428C150.591 164.428 132.824 146.035 132.824 123.364C132.824 100.693 150.633 82.2999 172.5 82.2999C194.367 82.2999 212.219 100.693 212.219 123.364C212.219 146.035 194.41 164.428 172.5 164.428ZM172.5 148.559C185.953 148.559 196.886 137.266 196.886 123.364C196.886 109.462 185.953 98.1694 172.5 98.1694C159.047 98.1694 148.156 109.462 148.156 123.364C148.156 137.266 159.09 148.559 172.5 148.559ZM172.5 471.342C118.516 471.342 74.6545 425.915 74.6545 370.093C74.6545 314.271 118.559 268.886 172.5 268.886C226.441 268.886 270.345 314.314 270.345 370.093C270.345 425.872 226.441 471.342 172.5 471.342ZM172.5 455.515C217.985 455.515 255.013 417.232 255.013 370.136C255.013 323.04 217.985 284.756 172.5 284.756C127.015 284.756 89.987 323.04 89.987 370.136C89.987 417.232 127.015 455.515 172.5 455.515ZM172.5 441.271C134.575 441.271 103.739 409.361 103.739 370.136C103.739 330.911 134.575 299 172.5 299C210.425 299 241.303 330.911 241.303 370.136C241.303 409.361 210.425 441.271 172.5 441.271ZM172.5 425.401C201.969 425.401 225.971 400.592 225.971 370.136C225.971 339.68 202.012 314.87 172.5 314.87C142.988 314.87 119.072 339.68 119.072 370.136C119.072 400.592 143.031 425.401 172.5 425.401ZM172.5 411.2C150.591 411.2 132.824 392.764 132.824 370.136C132.824 347.508 150.633 329.072 172.5 329.072C194.367 329.072 212.219 347.465 212.219 370.136C212.219 392.807 194.41 411.2 172.5 411.2ZM172.5 395.331C185.953 395.331 196.886 384.038 196.886 370.136C196.886 356.234 185.953 344.941 172.5 344.941C159.047 344.941 148.156 356.234 148.156 370.136C148.156 384.038 159.09 395.331 172.5 395.331ZM55.3932 37.3C63.2088 18.4789 76.7899 4.79081 92.8057 1.02657C93.4036 0.898242 93.7026 0.427754 93.7026 0H53.215V36.9152C53.215 38.2412 54.8807 38.5405 55.3932 37.3ZM290.504 37.3C291.016 38.4978 292.682 38.2412 292.682 36.9152V0H252.194C252.194 0.47053 252.493 0.898242 253.091 1.02657C269.107 4.79081 282.688 18.4361 290.504 37.3ZM55.3932 284.072C63.2088 265.251 76.7899 251.562 92.8057 247.798C94.0015 247.499 94.0015 246.001 92.8057 245.702C76.7899 241.938 63.2088 228.292 55.3932 209.428C54.8807 208.231 53.215 208.488 53.215 209.814V283.601C53.215 284.927 54.8807 285.227 55.3932 283.986V284.072ZM290.504 209.471C282.688 228.292 269.107 241.98 253.091 245.745C251.895 246.044 251.895 247.541 253.091 247.841C269.107 251.605 282.688 265.251 290.504 284.115C291.016 285.312 292.682 285.055 292.682 283.729V209.942C292.682 208.616 291.016 208.316 290.504 209.557V209.471ZM92.8057 492.473C76.7899 488.709 63.2088 475.064 55.3932 456.2C54.8807 455.002 53.215 455.259 53.215 456.585V530.372C53.215 531.698 54.8807 531.998 55.3932 530.757C63.2088 511.936 76.7899 498.291 92.8057 494.484C93.4036 494.355 93.7026 493.885 93.7026 493.457C93.7026 492.987 93.4036 492.559 92.8057 492.431V492.473ZM172.5 718.114C118.516 718.114 74.6545 672.686 74.6545 616.907C74.6545 561.128 118.559 515.701 172.5 515.701C226.441 515.701 270.345 561.128 270.345 616.907C270.345 672.686 226.441 718.114 172.5 718.114ZM172.5 702.244C217.985 702.244 255.013 663.96 255.013 616.864C255.013 569.768 217.985 531.485 172.5 531.485C127.015 531.485 89.987 569.768 89.987 616.864C89.987 663.96 127.015 702.244 172.5 702.244ZM172.5 688.043C134.575 688.043 103.739 656.132 103.739 616.907C103.739 577.682 134.575 545.771 172.5 545.771C210.425 545.771 241.303 577.682 241.303 616.907C241.303 656.132 210.425 688.043 172.5 688.043ZM172.5 672.173C201.969 672.173 225.971 647.363 225.971 616.907C225.971 586.451 202.012 561.641 172.5 561.641C142.988 561.641 119.072 586.451 119.072 616.907C119.072 647.363 143.031 672.173 172.5 672.173ZM172.5 657.929C150.591 657.929 132.824 639.535 132.824 616.864C132.824 594.193 150.633 575.8 172.5 575.8C194.367 575.8 212.219 594.193 212.219 616.864C212.219 639.535 194.41 657.929 172.5 657.929ZM172.5 642.102C185.953 642.102 196.886 630.809 196.886 616.907C196.886 603.005 185.953 591.712 172.5 591.712C159.047 591.712 148.156 603.005 148.156 616.907C148.156 630.809 159.09 642.102 172.5 642.102ZM172.5 964.885C118.516 964.885 74.6545 919.458 74.6545 863.636C74.6545 807.814 118.559 762.429 172.5 762.429C226.441 762.429 270.345 807.857 270.345 863.636C270.345 919.415 226.441 964.885 172.5 964.885ZM172.5 949.015C217.985 949.015 255.013 910.732 255.013 863.636C255.013 816.54 217.985 778.256 172.5 778.256C127.015 778.256 89.987 816.54 89.987 863.636C89.987 910.732 127.015 949.015 172.5 949.015ZM172.5 934.771C134.575 934.771 103.739 902.861 103.739 863.636C103.739 824.411 134.575 792.5 172.5 792.5C210.425 792.5 241.303 824.411 241.303 863.636C241.303 902.861 210.425 934.771 172.5 934.771ZM172.5 918.901C201.969 918.901 225.971 894.092 225.971 863.593C225.971 833.094 202.012 808.327 172.5 808.327C142.988 808.327 119.072 833.137 119.072 863.593C119.072 894.049 143.031 918.901 172.5 918.901ZM172.5 904.7C150.591 904.7 132.824 886.264 132.824 863.636C132.824 841.008 150.633 822.572 172.5 822.572C194.367 822.572 212.219 840.965 212.219 863.636C212.219 886.307 194.41 904.7 172.5 904.7ZM172.5 888.831C185.953 888.831 196.886 877.538 196.886 863.636C196.886 849.734 185.953 838.441 172.5 838.441C159.047 838.441 148.156 849.734 148.156 863.636C148.156 877.538 159.09 888.831 172.5 888.831ZM215.55 493.5H129.535C80.6766 475.192 45.6127 426.899 45.6127 370.136C45.6127 313.373 80.6766 265.036 129.535 246.771C80.6766 228.463 45.6127 180.17 45.6127 123.407C45.6127 66.644 80.6766 18.3079 129.535 0.0428172H215.593C264.451 18.3507 299.515 66.644 299.515 123.407C299.515 180.17 264.451 228.506 215.593 246.771C264.451 265.079 299.515 313.373 299.515 370.136C299.515 426.899 264.451 475.235 215.593 493.5H215.55ZM172.5 238.815C234.043 238.815 284.14 187.014 284.14 123.364C284.14 59.7143 234.086 7.91335 172.5 7.91335C110.914 7.91335 60.9025 59.7143 60.9025 123.364C60.9025 187.014 110.957 238.815 172.5 238.815ZM172.5 485.587C234.043 485.587 284.14 433.786 284.14 370.136C284.14 306.486 234.086 254.685 172.5 254.685C110.914 254.685 60.9025 306.486 60.9025 370.136C60.9025 433.786 110.957 485.587 172.5 485.587ZM129.492 987C80.6338 968.692 45.57 920.399 45.57 863.636C45.57 806.873 80.6338 758.537 129.492 740.272C80.6338 721.964 45.57 673.67 45.57 616.907C45.57 560.144 80.6338 511.808 129.492 493.543H215.55C264.409 511.851 299.473 560.144 299.473 616.907C299.473 673.67 264.409 722.007 215.55 740.272C264.409 758.58 299.473 806.873 299.473 863.636C299.473 920.399 264.409 968.735 215.55 987H129.535H129.492ZM172.5 732.315C234.043 732.315 284.14 680.514 284.14 616.864C284.14 553.214 234.086 501.413 172.5 501.413C110.914 501.413 60.9025 553.214 60.9025 616.864C60.9025 680.514 110.957 732.315 172.5 732.315ZM172.5 979.087C234.043 979.087 284.14 927.286 284.14 863.636C284.14 799.986 234.086 748.185 172.5 748.185C110.914 748.185 60.9025 799.986 60.9025 863.636C60.9025 927.286 110.957 979.087 172.5 979.087ZM292.682 490.677V456.585C292.682 455.259 291.016 454.959 290.504 456.2C282.688 475.021 269.107 488.709 253.091 492.473C252.493 492.602 252.194 493.072 252.194 493.5C252.194 493.971 252.493 494.398 253.091 494.527C269.107 498.291 282.688 511.936 290.504 530.8C291.016 531.998 292.682 531.741 292.682 530.415V490.677ZM55.3932 777.572C63.2088 758.751 76.7899 745.062 92.8057 741.298C94.0015 740.999 94.0015 739.502 92.8057 739.202C76.7899 735.438 63.2088 721.792 55.3932 702.928C54.8807 701.731 53.215 701.988 53.215 703.314V777.101C53.215 778.427 54.8807 778.727 55.3932 777.486V777.572ZM290.504 702.971C282.688 721.792 269.107 735.48 253.091 739.245C251.895 739.544 251.895 741.042 253.091 741.341C269.107 745.105 282.688 758.751 290.504 777.615C291.016 778.812 292.682 778.555 292.682 777.229V703.442C292.682 702.116 291.016 701.816 290.504 703.057V702.971ZM55.3932 949.7C54.8807 948.502 53.215 948.759 53.215 950.085V987H93.7026C93.7026 986.529 93.4036 986.102 92.8057 985.973C76.7899 982.209 63.2088 968.564 55.3932 949.7ZM290.504 949.7C282.688 968.521 269.107 982.209 253.091 985.973C252.493 986.102 252.194 986.572 252.194 987H292.682V950.085C292.682 948.759 291.016 948.459 290.504 949.7ZM314.335 493.5V987H345V0H314.335V493.5ZM30.6647 490.378V0H0V987H30.6647V490.335V490.378Z" fill="black" fill-opacity="0.04"/>
</svg>
