<svg width="226" height="225" viewBox="0 0 226 225" fill="none" xmlns="http://www.w3.org/2000/svg">
<path fill-rule="evenodd" clip-rule="evenodd" d="M35.9801 50.3764C25.0361 48.3997 13.7084 47.7335 1.99889 48.3776C1.99889 46.3787 1.99889 44.3798 1.99889 42.3809C19.9889 42.3809 37.9789 42.3809 55.969 42.3809C59.483 43.1343 62.8152 44.4667 65.9634 46.3787C69.5135 42.3053 72.8456 37.9743 75.9579 33.3859C89.8202 25.4762 100.814 28.4746 108.94 42.3809C111.996 52.7393 108.998 60.7349 99.9446 66.3676C105.362 67.8909 110.359 66.5585 114.936 62.3698C126.458 44.3732 122.794 30.0479 103.942 19.3936C69.3016 18.3944 34.6548 18.0612 0 18.3942C0 12.3975 0 6.40082 0 0.404143C34.6548 0.0711279 69.3016 0.404343 103.942 1.40359C133.024 11.9256 144.018 32.2475 136.924 62.3698C132.541 75.3964 123.546 83.0587 109.939 85.357C95.8189 88.8455 83.4917 85.8472 72.9596 76.362C69.1557 72.4822 67.4906 67.8182 67.9623 62.3698C63.9645 62.3698 59.9668 62.3698 55.969 62.3698C56.6126 57.9275 55.2794 54.2629 51.9712 51.3759C46.6821 50.3816 41.3511 50.0484 35.9801 50.3764Z" fill="#DB9D30"/>
<path fill-rule="evenodd" clip-rule="evenodd" d="M149.916 52.3754C148.583 48.3776 147.252 44.3798 145.919 40.382C145.631 32.3643 144.965 24.3687 143.92 16.3953C142.387 2.26697 148.383 -2.73026 161.91 1.40365C168.694 9.6087 169.693 18.6037 164.908 28.3887C160.389 36.7766 155.391 44.7722 149.916 52.3754Z" fill="#DB9D30"/>
<path fill-rule="evenodd" clip-rule="evenodd" d="M199.889 0.404038C220.072 -0.136462 227.068 9.19177 220.877 28.3885C197.882 42.5491 175.229 57.2076 152.915 72.3642C139.66 90.2073 129 109.53 120.933 130.332C118.45 127.59 115.452 125.591 111.938 124.335C107.482 126.488 102.817 127.821 97.9456 128.333C97.6338 123.204 98.3014 118.207 99.9445 113.341C97.0921 109.943 95.427 106.278 94.9473 102.348C142.053 86.5591 174.035 55.2432 190.894 8.39961C193.687 5.26075 196.685 2.59562 199.889 0.404038Z" fill="#DB9D30"/>
<path fill-rule="evenodd" clip-rule="evenodd" d="M145.919 40.3818C147.252 44.3796 148.583 48.3774 149.917 52.3752C149.797 53.4608 149.131 54.127 147.918 54.3741C145.971 49.8912 145.303 45.2271 145.919 40.3818Z" fill="#DB9D30"/>
<path fill-rule="evenodd" clip-rule="evenodd" d="M187.895 78.3608C182.564 77.0281 177.235 75.6957 171.904 74.363C179.826 67.7259 188.487 62.0624 197.89 57.3724C207.189 54.9875 215.518 56.6534 222.876 62.3696C225.641 74.6099 220.643 80.6065 207.884 80.3597C201.254 79.2541 194.592 78.5877 187.895 78.3608Z" fill="#DB9D30"/>
<path fill-rule="evenodd" clip-rule="evenodd" d="M171.905 74.3633C177.236 75.6959 182.565 77.0284 187.896 78.3611C181.756 78.9955 175.759 78.3293 169.906 76.3622C170.154 75.1494 170.82 74.4832 171.905 74.3633Z" fill="#DB9D30"/>
<path fill-rule="evenodd" clip-rule="evenodd" d="M163.909 86.3567C193.573 81.4379 213.896 92.765 224.876 120.338C225.875 154.979 226.209 189.625 225.875 224.28C219.878 224.28 213.882 224.28 207.885 224.28C208.219 190.293 207.885 156.312 206.886 122.337C196.477 103.309 182.151 98.9775 163.909 109.344C158.718 113.975 157.053 119.638 158.912 126.335C164.703 117.03 173.03 114.031 183.898 117.34C196.925 125.825 199.256 136.819 190.894 150.321C186.623 152.278 182.957 154.943 179.901 158.317C180.9 160.316 181.899 162.315 182.899 164.314C183.898 184.29 184.23 204.279 183.898 224.28C181.234 224.28 178.567 224.28 175.903 224.28C176.235 207.61 175.903 190.953 174.903 174.308C172.421 171.565 169.422 169.567 165.908 168.311C164.005 165.223 163.34 161.891 163.909 158.317C147.726 154.007 139.063 143.345 137.924 126.335C138.709 107.616 147.371 94.2897 163.909 86.3567Z" fill="#DB9D30"/>
</svg>
