<svg width="267" height="367" viewBox="0 0 267 367" fill="none" xmlns="http://www.w3.org/2000/svg">
<path d="M252.629 173.733V192.45C252.645 220.824 252.645 248.022 252.645 258.641C252.645 283.961 226.937 284.255 225.763 284.255H225.717C224.762 303.724 203.549 304.764 199.017 304.764C198.471 304.764 198.168 304.753 198.168 304.753C198.168 304.753 196.418 323.876 166.148 331.617C148.027 337.017 133.491 349.734 133.491 349.734C133.491 349.734 118.955 337.017 100.834 331.617C70.5645 323.871 68.8139 304.753 68.8139 304.753C68.8139 304.753 68.5107 304.764 67.965 304.764C63.4329 304.764 42.2351 303.729 41.265 284.255H41.2348C40.0373 284.255 14.3376 283.961 14.3376 258.641C14.3376 248.022 14.3377 220.829 14.3528 192.45V173.733C14.3377 145.359 14.3376 118.162 14.3376 107.542C14.3376 82.2218 40.0449 81.9278 41.2348 81.9278H41.265C42.2351 62.4595 63.4329 61.4078 67.965 61.4078C68.5107 61.4078 68.8139 61.4304 68.8139 61.4304C68.8139 61.4304 70.5645 42.307 100.834 34.5661C118.955 29.1661 133.491 16.4492 133.491 16.4492C133.491 16.4492 148.027 29.1661 166.148 34.5661C196.418 42.3127 198.168 61.4304 198.168 61.4304C198.168 61.4304 198.471 61.4078 199.017 61.4078C203.549 61.4078 224.762 62.4539 225.717 81.9278H225.763C226.945 81.9278 252.645 82.2218 252.645 107.542C252.645 118.162 252.645 145.354 252.629 173.733Z" fill="#DB9D30"/>
<path d="M266.985 173.733C267 145.359 267 118.161 267 107.542C267 83.4258 247.902 75.4021 238.413 72.8972C234.548 61.9954 224.165 54.328 209.659 51.6704C205.9 43.9351 196.048 30.9808 171.25 24.546C156.956 20.2147 144.55 9.59561 144.429 9.49383L133.53 0L122.602 9.48252C122.481 9.5843 110.089 20.2034 95.8714 24.5234C70.9676 30.9807 61.1152 43.9351 57.341 51.6704C42.8504 54.3336 32.4674 61.9954 28.6023 72.8972C19.0985 75.4021 0 83.4258 0 107.542C0 118.161 1.48026e-05 145.353 0.0151723 173.733V192.438C1.48026e-05 220.823 0 248.021 0 258.64C0 276.542 10.58 285.505 19.4471 289.881C22.2589 291.267 25.3282 292.397 28.5871 293.24C32.4371 304.164 42.8352 311.854 57.341 314.512C61.1152 322.247 70.9676 335.202 95.7653 341.636C110.089 345.979 122.481 356.598 122.602 356.7L133.485 366.182L144.413 356.7C144.535 356.598 156.926 345.979 171.144 341.659C196.048 335.202 205.9 322.247 209.659 314.512C224.165 311.849 234.548 304.187 238.413 293.274C247.902 290.78 267 282.757 267 258.64C267 248.021 267 220.829 266.985 192.449V173.733ZM257.178 258.64C257.178 281.19 238.534 286.206 229.947 287.32C227.666 301.456 214.35 307.252 202.035 308.043C200.178 314.269 193.228 328.235 167.733 334.783C150.961 339.81 137.092 351.809 136.956 351.922L133.492 354.941L130.044 351.933C129.908 351.809 116.039 339.816 99.2667 334.783C73.7717 328.235 66.822 314.263 64.9652 308.043C52.6497 307.252 39.3187 301.462 37.0526 287.32C28.4659 286.206 9.80688 281.185 9.80688 258.64C9.80688 248.021 9.8069 220.829 9.82206 192.449V173.733C9.8069 145.359 9.80688 118.161 9.80688 107.542C9.80688 84.9808 28.4659 79.9766 37.0526 78.8627C39.3187 64.7265 52.6497 58.9307 64.9652 58.1278C66.822 51.9135 73.7717 37.947 99.2667 31.3992C107.656 28.8716 115.311 24.6251 120.889 20.9837C126.482 17.3422 129.968 14.3114 130.044 14.2549L133.492 11.2467L136.941 14.2549C137.092 14.3793 150.961 26.3611 167.733 31.4048C193.228 37.9527 200.178 51.9248 202.035 58.1334C214.35 58.9364 227.666 64.7265 229.947 78.8683C238.527 79.9822 257.178 84.9921 257.178 107.548C257.178 118.167 257.178 145.359 257.163 173.739V192.455C257.178 220.829 257.178 248.027 257.178 258.646V258.64Z" fill="#DB9D30"/>
</svg>
